HIERARCHY
ROOT joint_0
{
	OFFSET 0.000000 0.000000 0.000000
	CHANNELS 6 Xposition Yposition Zposition Zrotation Yrotation Xrotation 
	JOINT joint_1
	{
		OFFSET 11.612000 -0.419000 106.198000
		CHANNELS 3 Zrotation Yrotation Xrotation
		JOINT joint_2
		{
			OFFSET -1.708000 -1.022000 97.564090
			CHANNELS 3 Zrotation Yrotation Xrotation
			JOINT joint_3
			{
				OFFSET -4.121000 -1.538000 97.375000
				CHANNELS 3 Zrotation Yrotation Xrotation
				JOINT joint_4
				{
					OFFSET 5.442000 -2.123000 132.795900
					CHANNELS 3 Zrotation Yrotation Xrotation
					JOINT joint_5
					{
						OFFSET 21.935000 0.195000 82.975100
						CHANNELS 3 Zrotation Yrotation Xrotation
						End Site
						{
							OFFSET 0.000000 0.000000 0.000000
						}
					}
				}
				JOINT joint_6
				{
					OFFSET 4.262000 -30.048000 73.899900
					CHANNELS 3 Zrotation Yrotation Xrotation
					JOINT joint_7
					{
						OFFSET 9.731000 -136.810010 -21.963010
						CHANNELS 3 Zrotation Yrotation Xrotation
						JOINT joint_8
						{
							OFFSET 33.360000 -35.709000 -267.597900
							CHANNELS 3 Zrotation Yrotation Xrotation
							JOINT joint_9
							{
								OFFSET 36.156000 -29.759000 -240.558040
								CHANNELS 3 Zrotation Yrotation Xrotation
								End Site
								{
									OFFSET 0.000000 0.000000 0.000000
								}
							}
						}
					}
				}
				JOINT joint_10
				{
					OFFSET 2.027000 27.734000 74.914920
					CHANNELS 3 Zrotation Yrotation Xrotation
					JOINT joint_11
					{
						OFFSET -5.183000 136.784000 -23.604980
						CHANNELS 3 Zrotation Yrotation Xrotation
						JOINT joint_12
						{
							OFFSET 29.806000 37.229000 -267.809940
							CHANNELS 3 Zrotation Yrotation Xrotation
							JOINT joint_13
							{
								OFFSET 36.890000 46.524990 -237.772030
								CHANNELS 3 Zrotation Yrotation Xrotation
								End Site
								{
									OFFSET 0.000000 0.000000 0.000000
								}
							}
						}
					}
				}
			}
		}
	}
	JOINT joint_14
	{
		OFFSET -7.290000 -102.873990 -124.314940
		CHANNELS 3 Zrotation Yrotation Xrotation
		JOINT joint_15
		{
			OFFSET -15.466000 -19.909010 -438.533020
			CHANNELS 3 Zrotation Yrotation Xrotation
			JOINT joint_16
			{
				OFFSET -26.899000 -18.922000 -464.797000
				CHANNELS 3 Zrotation Yrotation Xrotation
				JOINT joint_17
				{
					OFFSET 179.329000 -12.011000 -84.174000
					CHANNELS 3 Zrotation Yrotation Xrotation
					End Site
					{
						OFFSET 0.000000 0.000000 0.000000
					}
				}
			}
		}
	}
	JOINT joint_18
	{
		OFFSET -6.225000 101.546000 -125.479980
		CHANNELS 3 Zrotation Yrotation Xrotation
		JOINT joint_19
		{
			OFFSET -13.973000 7.996000 -438.963010
			CHANNELS 3 Zrotation Yrotation Xrotation
			JOINT joint_20
			{
				OFFSET -44.294000 5.716000 -463.813970
				CHANNELS 3 Zrotation Yrotation Xrotation
				JOINT joint_21
				{
					OFFSET 178.505000 -4.689000 -85.139000
					CHANNELS 3 Zrotation Yrotation Xrotation
					End Site
					{
						OFFSET 0.000000 0.000000 0.000000
					}
				}
			}
		}
	}
}
MOTION
Frames: 18
Frame Time: 0.016667
-0.465000 -116.328000 1128.609010 0.784075 -4.437326 0.584673 -1.065319 6.054203 -0.916249 -1.138054 -1.212896 0.174801 -1.115233 1.180268 -0.138744 -0.303437 -0.961930 1.161003 0.000000 0.000000 0.000000 -1.301447 -0.746324 2.013286 -0.055738 -1.244740 -2.161147 1.101739 -5.800399 2.246755 0.000000 0.000000 0.000000 -2.925125 -0.147281 0.752384 -0.419944 0.204075 -1.395830 -1.118491 -3.256391 -3.330660 0.000000 0.000000 0.000000 1.751970 2.401376 -2.446892 1.744771 0.926477 -0.068301 1.703612 0.677638 0.843570 0.000000 0.000000 0.000000 3.236056 2.963046 0.459525 3.186485 -0.919039 -0.043805 3.070883 1.411232 1.497868 0.000000 0.000000 0.000000 
0.844000 -116.214000 1128.691040 0.783548 -4.337391 0.586005 -1.067429 6.116530 -0.881271 -1.142005 -1.228027 0.165513 -1.118100 1.194619 -0.132829 -0.300637 -1.073055 1.151845 0.000000 0.000000 0.000000 -1.315366 -0.704803 2.001256 -0.062824 -1.205089 -2.186193 1.112797 -5.835872 2.287127 0.000000 0.000000 0.000000 -2.907466 -0.104137 0.729775 -0.416266 0.245246 -1.402120 -1.126105 -3.275786 -3.361159 0.000000 0.000000 0.000000 1.754133 2.365789 -2.484618 1.742418 0.923765 -0.016113 1.704383 0.673702 0.843756 0.000000 0.000000 0.000000 3.237181 2.897155 0.447123 3.188889 -0.860139 -0.035306 3.072683 1.376070 1.497997 0.000000 0.000000 0.000000 
2.355000 -116.120000 1128.803960 0.790792 -4.218934 0.585926 -1.073122 6.192450 -0.839784 -1.149833 -1.243573 0.152507 -1.124576 1.210795 -0.125157 -0.297769 -1.215779 1.142865 0.000000 0.000000 0.000000 -1.331104 -0.655475 1.991322 -0.071595 -1.158516 -2.221504 1.128366 -5.886718 2.342981 0.000000 0.000000 0.000000 -2.883799 -0.053416 0.702783 -0.411186 0.293707 -1.398791 -1.137106 -3.302934 -3.405806 0.000000 0.000000 0.000000 1.751125 2.318768 -2.525486 1.733704 0.924307 0.048732 1.699233 0.683590 0.842102 0.000000 0.000000 0.000000 3.239005 2.800539 0.446030 3.194012 -0.762929 -0.043687 3.074868 1.336126 1.498232 0.000000 0.000000 0.000000 
4.318000 -116.009000 1128.953000 0.806813 -4.049580 0.587301 -1.080870 6.249913 -0.793359 -1.159400 -1.255361 0.137863 -1.132724 1.222347 -0.114619 -0.293914 -1.379324 1.130445 0.000000 0.000000 0.000000 -1.357956 -0.582305 1.969721 -0.083096 -1.088555 -2.256122 1.145574 -5.938991 2.407891 0.000000 0.000000 0.000000 -2.845576 0.016940 0.677166 -0.405074 0.358822 -1.410289 -1.146675 -3.327622 -3.443206 0.000000 0.000000 0.000000 1.749471 2.258502 -2.569956 1.727072 0.896361 0.109701 1.694792 0.691015 0.840649 0.000000 0.000000 0.000000 3.236973 2.676858 0.444169 3.195717 -0.673298 -0.057973 3.073286 1.290076 1.496571 0.000000 0.000000 0.000000 
6.817000 -115.849000 1129.139040 0.831175 -3.813211 0.593925 -1.091242 6.269191 -0.741958 -1.170899 -1.250892 0.123043 -1.143319 1.217351 -0.104605 -0.289337 -1.552303 1.115396 0.000000 0.000000 0.000000 -1.410554 -0.480660 1.941291 -0.097491 -0.993255 -2.289851 1.161430 -5.976075 2.475072 0.000000 0.000000 0.000000 -2.778996 0.110604 0.651567 -0.398176 0.441435 -1.449085 -1.149882 -3.337592 -3.453488 0.000000 0.000000 0.000000 1.754667 2.179771 -2.621782 1.728475 0.828366 0.157420 1.696205 0.687262 0.841232 0.000000 0.000000 0.000000 3.229663 2.523172 0.429393 3.191613 -0.609389 -0.067986 3.066854 1.236983 1.492465 0.000000 0.000000 0.000000 
9.754000 -115.656000 1129.363040 0.864204 -3.522055 0.605212 -1.104669 6.262999 -0.685597 -1.185009 -1.233890 0.105677 -1.156751 1.199401 -0.093136 -0.284015 -1.738406 1.097600 0.000000 0.000000 0.000000 -1.487117 -0.356876 1.915752 -0.114772 -0.880072 -2.332562 1.177163 -6.002104 2.548290 0.000000 0.000000 0.000000 -2.688345 0.222247 0.619219 -0.389890 0.537866 -1.501545 -1.148377 -3.335524 -3.444661 0.000000 0.000000 0.000000 1.763731 2.083130 -2.681046 1.734218 0.731997 0.198219 1.700360 0.681324 0.842974 0.000000 0.000000 0.000000 3.218019 2.337999 0.405872 3.183234 -0.554528 -0.077567 3.056471 1.180491 1.486416 0.000000 0.000000 0.000000 
13.517000 -115.453000 1129.618040 0.906773 -3.151182 0.611457 -1.116509 6.209154 -0.619001 -1.196715 -1.211715 0.087319 -1.167810 1.176459 -0.080998 -0.276847 -1.964473 1.073659 0.000000 0.000000 0.000000 -1.533179 -0.179794 1.841470 -0.138205 -0.702772 -2.354199 1.196670 -6.050132 2.631815 0.000000 0.000000 0.000000 -2.598379 0.377945 0.611583 -0.379615 0.676946 -1.579713 -1.151502 -3.349584 -3.446721 0.000000 0.000000 0.000000 1.774326 1.985537 -2.731049 1.745548 0.567257 0.222662 1.706817 0.660722 0.844852 0.000000 0.000000 0.000000 3.199499 2.144259 0.393789 3.167894 -0.559836 -0.101184 3.038842 1.115232 1.476720 0.000000 0.000000 0.000000 
18.314000 -115.259000 1129.899050 0.957813 -2.675070 0.605031 -1.124172 6.076477 -0.535139 -1.203132 -1.188640 0.064861 -1.173281 1.152395 -0.067069 -0.266952 -2.239024 1.040686 0.000000 0.000000 0.000000 -1.514585 0.073419 1.686716 -0.169621 -0.429164 -2.335193 1.223504 -6.145256 2.731421 0.000000 0.000000 0.000000 -2.516774 0.595463 0.647608 -0.367096 0.877002 -1.688928 -1.166034 -3.397194 -3.484422 0.000000 0.000000 0.000000 1.788529 1.898789 -2.756103 1.768446 0.283904 0.215051 1.718660 0.622376 0.848099 0.000000 0.000000 0.000000 3.171180 1.958533 0.410121 3.142305 -0.686071 -0.152709 3.010533 1.053580 1.462037 0.000000 0.000000 0.000000 
23.994000 -115.065000 1130.207030 1.016456 -2.103660 0.589918 -1.128153 5.870533 -0.437254 -1.204791 -1.154013 0.041279 -1.174215 1.117198 -0.052555 -0.254316 -2.552712 0.998474 0.000000 0.000000 0.000000 -1.458971 0.392456 1.480301 -0.207625 -0.077731 -2.294495 1.256148 -6.273815 2.845543 0.000000 0.000000 0.000000 -2.436674 0.864816 0.706903 -0.351859 1.128415 -1.814810 -1.188732 -3.466883 -3.548394 0.000000 0.000000 0.000000 1.807186 1.817057 -2.762040 1.802521 -0.103697 0.177587 1.735988 0.577966 0.853499 0.000000 0.000000 0.000000 3.134117 1.772822 0.447771 3.107574 -0.914936 -0.227198 2.973119 1.002911 1.443232 0.000000 0.000000 0.000000 
30.803000 -114.862000 1130.551030 1.090009 -1.471504 0.575280 -1.132718 5.666861 -0.339215 -1.207005 -1.123825 0.018767 -1.175635 1.086514 -0.039389 -0.238699 -2.947340 0.947505 0.000000 0.000000 0.000000 -1.328240 0.770523 1.256818 -0.255605 0.346609 -2.264405 1.289070 -6.417393 2.958408 0.000000 0.000000 0.000000 -2.373131 1.183371 0.771246 -0.330986 1.433324 -1.933250 -1.216672 -3.554869 -3.622751 0.000000 0.000000 0.000000 1.814836 1.732827 -2.771347 1.825364 -0.491464 0.150066 1.743906 0.522177 0.853648 0.000000 0.000000 0.000000 3.093723 1.576474 0.486502 3.069940 -1.129752 -0.301306 2.932711 0.915070 1.421894 0.000000 0.000000 0.000000 
38.940000 -114.655000 1130.928960 1.176311 -0.789412 0.569205 -1.139699 5.505460 -0.251555 -1.211975 -1.101986 -0.001170 -1.179655 1.065694 -0.027700 -0.218283 -3.481479 0.883467 0.000000 0.000000 0.000000 -1.066194 1.219559 1.030394 -0.317841 0.862548 -2.271061 1.326349 -6.598572 3.083540 0.000000 0.000000 0.000000 -2.341145 1.568028 0.824076 -0.301156 1.813804 -2.011489 -1.258588 -3.692808 -3.728134 0.000000 0.000000 0.000000 1.800276 1.647772 -2.800920 1.823044 -0.847444 0.160626 1.731344 0.463843 0.843884 0.000000 0.000000 0.000000 3.050923 1.370469 0.513535 3.030269 -1.286453 -0.362245 2.890299 0.763676 1.397729 0.000000 0.000000 0.000000 
48.305000 -114.447000 1131.338990 1.272083 -0.044696 0.568666 -1.148235 5.358797 -0.168113 -1.218446 -1.078789 -0.018665 -1.185404 1.042435 -0.018485 -0.192135 -4.139939 0.803396 0.000000 0.000000 0.000000 -0.685731 1.744717 0.814208 -0.391851 1.471243 -2.320383 1.369725 -6.822244 3.227960 0.000000 0.000000 0.000000 -2.331718 2.019790 0.847616 -0.263131 2.270876 -2.031004 -1.316133 -3.880924 -3.873658 0.000000 0.000000 0.000000 1.769811 1.565102 -2.841160 1.804734 -1.212906 0.193210 1.704113 0.417417 0.827852 0.000000 0.000000 0.000000 3.003701 1.159511 0.536483 2.986147 -1.431394 -0.418094 2.843806 0.578696 1.370451 0.000000 0.000000 0.000000 
58.777000 -114.198000 1131.806030 1.410335 0.712092 0.566203 -1.157910 5.253588 -0.082447 -1.226314 -1.056615 -0.034472 -1.192591 1.021569 -0.009667 -0.164518 -4.791497 0.718408 0.000000 0.000000 0.000000 -0.318153 2.286017 0.681109 -0.465629 2.084411 -2.414308 1.383008 -6.927287 3.276687 0.000000 0.000000 0.000000 -2.355629 2.455272 0.815919 -0.223222 2.721331 -2.022232 -1.341305 -3.955700 -3.925351 0.000000 0.000000 0.000000 1.726587 1.455598 -2.881662 1.765412 -1.426314 0.246521 1.665229 0.332856 0.803616 0.000000 0.000000 0.000000 2.962961 0.907212 0.556278 2.951567 -1.418937 -0.463275 2.804389 0.347853 1.345067 0.000000 0.000000 0.000000 
70.348000 -113.865000 1132.308960 1.618278 1.459762 0.552943 -1.170280 5.213604 0.020972 -1.237612 -1.042551 -0.052146 -1.202795 1.008929 0.001032 -0.136713 -5.373784 0.629035 0.000000 0.000000 0.000000 -0.031460 2.811287 0.691552 -0.534019 2.651427 -2.582662 1.344519 -6.788304 3.175417 0.000000 0.000000 0.000000 -2.427852 2.831892 0.715765 -0.184791 3.122823 -2.022791 -1.301000 -3.807081 -3.791218 0.000000 0.000000 0.000000 1.665902 1.317164 -2.913448 1.697835 -1.429525 0.326512 1.610675 0.189796 0.767915 0.000000 0.000000 0.000000 2.943207 0.575033 0.573142 2.943571 -1.140472 -0.493132 2.786586 0.033118 1.327490 0.000000 0.000000 0.000000 
83.064000 -113.465000 1132.837040 1.882424 2.218433 0.532729 -1.184787 5.223896 0.143052 -1.251297 -1.023930 -0.072107 -1.215371 0.991004 0.012379 -0.106577 -5.933568 0.527609 0.000000 0.000000 0.000000 0.232814 3.347278 0.839773 -0.598821 3.207021 -2.845636 1.269047 -6.459291 2.972697 0.000000 0.000000 0.000000 -2.548958 3.182760 0.541071 -0.144779 3.510136 -2.003792 -1.212020 -3.495225 -3.523484 0.000000 0.000000 0.000000 1.586332 1.161583 -2.939065 1.603999 -1.288832 0.435072 1.538660 0.022537 0.722167 0.000000 0.000000 0.000000 2.939970 0.177503 0.587288 2.956508 -0.655556 -0.507728 2.786902 -0.343406 1.316454 0.000000 0.000000 0.000000 
96.604000 -113.063000 1133.564940 2.178695 2.926815 0.524980 -1.196657 5.285877 0.249768 -1.261360 -1.017599 -0.090429 -1.224049 0.984995 0.020701 -0.084013 -6.372425 0.445536 0.000000 0.000000 0.000000 0.441003 3.847673 1.040007 -0.642294 3.711843 -3.076775 1.151894 -5.987717 2.587349 0.000000 0.000000 0.000000 -2.692286 3.452093 0.336831 -0.104230 3.821150 -1.949310 -1.075200 -3.031933 -3.130262 0.000000 0.000000 0.000000 1.522771 0.910204 -2.964322 1.505308 -0.771677 0.543490 1.478798 -0.208074 0.677659 0.000000 0.000000 0.000000 2.917413 -0.219872 0.600853 2.952547 -0.010118 -0.502726 2.772880 -0.628620 1.300370 0.000000 0.000000 0.000000 
110.833000 -112.710000 1134.614010 2.520164 3.550333 0.563449 -1.207155 5.412489 0.285774 -1.267433 -1.050955 -0.092164 -1.228241 1.021646 0.026354 -0.076232 -6.642471 0.405808 0.000000 0.000000 0.000000 0.550476 4.281803 1.217534 -0.652991 4.140198 -3.162741 0.979122 -5.373016 1.924660 0.000000 0.000000 0.000000 -2.837151 3.592325 0.159730 -0.060704 4.001614 -1.882324 -0.879017 -2.398343 -2.580784 0.000000 0.000000 0.000000 1.497774 0.573988 -3.002639 1.424098 0.172291 0.598267 1.452403 -0.484072 0.645463 0.000000 0.000000 0.000000 2.846131 -0.592134 0.589841 2.900698 0.788563 -0.469633 2.718331 -0.706471 1.269723 0.000000 0.000000 0.000000 
125.876000 -112.384000 1135.915040 2.917681 4.111920 0.644606 -1.218663 5.605454 0.258184 -1.271658 -1.117552 -0.072199 -1.230631 1.092849 0.029919 -0.079494 -6.781789 0.395843 0.000000 0.000000 0.000000 0.577499 4.667366 1.406145 -0.639871 4.507114 -3.157117 0.750282 -4.587335 1.019709 0.000000 0.000000 0.000000 -2.997074 3.626238 0.002733 -0.006321 4.077280 -1.820593 -0.617739 -1.596542 -1.865286 0.000000 0.000000 0.000000 1.496260 0.187572 -3.057267 1.351009 1.441915 0.618788 1.448836 -0.751574 0.623946 0.000000 0.000000 0.000000 2.738513 -0.962712 0.549609 2.813891 1.751260 -0.407000 2.637330 -0.609914 1.230272 0.000000 0.000000 0.000000 
